<?xml version="1.0" standalone="no"?><!DOCTYPE svg PUBLIC "-//W3C//DTD SVG 1.1//EN" "http://www.w3.org/Graphics/SVG/1.1/DTD/svg11.dtd"><svg t="1710281551981" class="icon" viewBox="0 0 1024 1024" version="1.1" xmlns="http://www.w3.org/2000/svg" p-id="4297" xmlns:xlink="http://www.w3.org/1999/xlink" width="200" height="200"><path d="M277.333333 789.333333a42.666667 42.666667 0 1 1 0-85.333333 42.666667 42.666667 0 0 1 0 85.333333z m0 64a106.666667 106.666667 0 1 0 0-213.333333 106.666667 106.666667 0 0 0 0 213.333333zM573.44 402.773333l113.152-113.194666 45.226667 45.226666L618.666667 448l-45.226667-45.226667z" fill="#333333" p-id="4298"></path><path d="M751.829333 272.170667A64 64 0 1 1 661.333333 362.666667a64 64 0 0 1 90.496-90.496zM346.026667 244.48a311.04 311.04 0 0 0 430.336 430.378667L345.984 244.48z m-33.109334-63.317333c14.677333-18.432 41.941333-18.346667 58.581334-1.664L841.386667 649.386667c16.64 16.64 16.810667 43.946667-1.621334 58.624A374.954667 374.954667 0 0 1 312.917333 181.162667z" fill="#333333" p-id="4299"></path></svg>